<svg width="24" height="24" viewBox="0 0 24 24" fill="none" xmlns="http://www.w3.org/2000/svg">
<path d="M7.539 24C16.596 24 21.5505 14.7642 21.5505 6.76892C21.5525 6.50924 21.5495 6.24956 21.5415 5.98988C22.5058 5.13007 23.3382 4.0662 24 2.8479C23.0987 3.33576 22.144 3.65795 21.1665 3.80415C22.1964 3.04673 22.9677 1.85474 23.337 0.449871C22.3699 1.15639 21.3108 1.65167 20.2065 1.91379C19.4643 0.940965 18.4821 0.296496 17.4121 0.0802122C16.3422 -0.136072 15.2441 0.0878992 14.288 0.717433C13.3319 1.34697 12.5712 2.34693 12.1237 3.56243C11.6761 4.77793 11.5668 6.14114 11.8125 7.44088C9.85452 7.32063 7.93897 6.69491 6.19024 5.60436C4.44152 4.51381 2.89871 2.98281 1.662 1.11076C1.03437 2.44572 0.842926 4.02454 1.12651 5.52686C1.4101 7.02917 2.14747 8.34244 3.189 9.20017C2.40811 9.16912 1.64429 8.91102 0.96 8.44698V8.53006C0.961909 9.92822 1.35573 11.2828 2.07499 12.365C2.79424 13.4473 3.79488 14.191 4.908 14.4707C4.48541 14.614 4.04885 14.6854 3.6105 14.683C3.30138 14.6869 2.99275 14.6516 2.6895 14.5777C3.00359 15.7819 3.61616 16.8348 4.44125 17.5887C5.26634 18.3426 6.26253 18.7596 7.29 18.7812C5.54415 20.4666 3.38887 21.3813 1.17 21.3786C0.778948 21.3822 0.388119 21.3545 0 21.2955C2.25213 23.0631 4.8679 24.0014 7.539 24Z" fill="#3A3227"/>
</svg>
